<svg width="74" height="73" viewBox="0 0 74 73" fill="none" xmlns="http://www.w3.org/2000/svg">
<g id="Group">
<path id="Vector" d="M0.604919 72.9074L5.74959 54.2255C2.56893 48.742 0.90039 42.532 0.917771 36.1836C0.917771 16.2909 17.186 0.117188 37.1564 0.117188C46.8548 0.117188 55.9622 3.87086 62.7928 10.6863C69.6408 17.5017 73.4124 26.5659 73.395 36.2009C73.395 56.0937 57.1268 72.2673 37.139 72.2673H37.1216C31.0558 72.2673 25.0942 70.7451 19.7931 67.8736L0.604919 72.9074ZM20.7143 61.3523L21.8093 62.0096C26.4325 64.7427 31.7336 66.1784 37.139 66.1957H37.1564C53.7549 66.1957 67.277 52.7551 67.277 36.2182C67.277 28.2092 64.1485 20.6846 58.4651 15.0108C52.7816 9.33704 45.2036 6.2234 37.1564 6.2234C20.5579 6.2061 7.03576 19.6467 7.03576 36.1836C7.03576 41.8401 8.61739 47.3581 11.6416 52.1324L12.3542 53.2741L9.31262 64.3275L20.7143 61.3523Z" fill="white"/>
<path id="Vector_2" d="M1.87378 71.6445L6.84464 53.6027C3.76827 48.3268 2.15187 42.3244 2.15187 36.2008C2.16925 17 17.864 1.37988 37.1565 1.37988C46.5246 1.37988 55.3019 5.01247 61.9065 11.5857C68.5111 18.159 72.1437 26.9118 72.1437 36.2181C72.1437 55.419 56.4316 71.0391 37.1565 71.0391H37.1391C31.2818 71.0391 25.5288 69.5688 20.4189 66.8011L1.87378 71.6445Z" fill="url(#paint0_linear_127_16)"/>
<path id="Vector_3" d="M0.604919 72.9074L5.74959 54.2255C2.56893 48.742 0.90039 42.532 0.917771 36.1836C0.917771 16.2909 17.186 0.117188 37.1564 0.117188C46.8548 0.117188 55.9622 3.87086 62.7928 10.6863C69.6408 17.5017 73.4124 26.5659 73.395 36.2009C73.395 56.0937 57.1268 72.2673 37.139 72.2673H37.1216C31.0558 72.2673 25.0942 70.7451 19.7931 67.8736L0.604919 72.9074ZM20.7143 61.3523L21.8093 62.0096C26.4325 64.7427 31.7336 66.1784 37.139 66.1957H37.1564C53.7549 66.1957 67.277 52.7551 67.277 36.2182C67.277 28.2092 64.1485 20.6846 58.4651 15.0108C52.7816 9.33704 45.2036 6.2234 37.1564 6.2234C20.5579 6.2061 7.03576 19.6467 7.03576 36.1836C7.03576 41.8401 8.61739 47.3581 11.6416 52.1324L12.3542 53.2741L9.31262 64.3275L20.7143 61.3523Z" fill="url(#paint1_linear_127_16)"/>
<path id="Vector_4" fill-rule="evenodd" clip-rule="evenodd" d="M28.1008 21.0998C27.423 19.5948 26.7104 19.5602 26.0673 19.5429C25.5459 19.5256 24.9375 19.5256 24.3292 19.5256C23.7209 19.5256 22.7476 19.7505 21.9133 20.65C21.079 21.5495 18.75 23.7291 18.75 28.1747C18.75 32.603 22.0002 36.8929 22.4521 37.4983C22.904 38.1037 28.7265 47.4966 37.9209 51.1119C45.5683 54.1217 47.1326 53.5163 48.7838 53.3606C50.4349 53.2049 54.137 51.1811 54.9017 49.0707C55.6491 46.9603 55.6491 45.1613 55.4232 44.7808C55.1972 44.4002 54.5889 44.1753 53.6851 43.7256C52.7813 43.2758 48.3319 41.0963 47.4976 40.7849C46.6633 40.4909 46.055 40.3352 45.4641 41.2347C44.8557 42.1342 43.1177 44.158 42.5963 44.7635C42.0748 45.3689 41.536 45.4381 40.6322 44.9884C39.7285 44.5386 36.8085 43.5872 33.3498 40.5082C30.6558 38.121 28.8308 35.1631 28.3094 34.2636C27.788 33.3641 28.2572 32.8797 28.7091 32.43C29.1089 32.0321 29.6129 31.3748 30.0648 30.8559C30.5167 30.3369 30.6731 29.9564 30.9686 29.3509C31.2641 28.7455 31.125 28.2266 30.8991 27.7768C30.6731 27.3443 28.9003 22.8815 28.1008 21.0998Z" fill="white"/>
</g>
<defs>
<linearGradient id="paint0_linear_127_16" x1="37.0069" y1="71.641" x2="37.0069" y2="1.37742" gradientUnits="userSpaceOnUse">
<stop stop-color="#20B038"/>
<stop offset="1" stop-color="#60D66A"/>
</linearGradient>
<linearGradient id="paint1_linear_127_16" x1="37.0071" y1="72.9005" x2="37.0071" y2="0.117188" gradientUnits="userSpaceOnUse">
<stop stop-color="#F9F9F9"/>
<stop offset="1" stop-color="white"/>
</linearGradient>
</defs>
</svg>
